<?xml version="1.0" encoding="UTF-8"?>
<svg id="Layer_1" xmlns="http://www.w3.org/2000/svg" version="1.1" viewBox="0 0 269.19 269.19">
  <!-- Generator: Adobe Illustrator 29.8.6, SVG Export Plug-In . SVG Version: 2.1.1 Build 1)  -->
  <defs>
    <style>
      .st0 {
        fill: #241f20;
      }
    </style>
  </defs>
  <path class="st0" d="M153.14,202.4c0-6.74-5.3-10.54-11.89-10.54h-19.48v20.94h19.48c6.59,0,11.89-3.81,11.89-10.4Z"/>
  <path class="st0" d="M63.28,251.69h33.85v-81.8h47.84c21.49,0,33.23,14.79,33.23,32.51s-11.75,32.36-33.23,32.36h-23.2v16.93h84.13V17.5H63.28v234.2ZM110.1,116.89c3.44,2.93,8.02,5.71,13.75,5.71,7.73,0,12.75-5.13,12.75-13.33v-63.84h24.64v64.14c0,24.16-14.32,35.29-35.24,35.29-9.6,0-19.05-2.34-26.21-8.79l10.31-19.18Z"/>
</svg>