<?xml version="1.0" encoding="UTF-8"?>
<svg id="Layer_1" xmlns="http://www.w3.org/2000/svg" version="1.1" viewBox="0 0 656.42 249.19">
  <!-- Generator: Adobe Illustrator 30.3.0, SVG Export Plug-In . SVG Version: 2.1.3 Build 182)  -->
  <defs>
    <style>
      .st0 {
        fill: #241f20;
      }
    </style>
  </defs>
  <path class="st0" d="M97.74,196.74c0-7.17-5.76-11.22-12.93-11.22h-21.19v22.28h21.19c7.17,0,12.93-4.05,12.93-11.06Z"/>
  <path class="st0" d="M0,249.19h36.83v-87.04h52.04c23.37,0,36.15,15.74,36.15,34.59s-12.78,34.43-36.15,34.43h-25.24v18.02h91.52V0H0v249.19ZM50.93,105.76c3.74,3.12,8.72,6.08,14.96,6.08,8.41,0,13.87-5.45,13.87-14.18V29.73h26.8v68.24c0,25.71-15.58,37.55-38.33,37.55-10.44,0-20.72-2.49-28.51-9.35l11.22-20.41Z"/>
  <polygon class="st0" points="243.52 17.77 230.28 56.88 256.61 56.88 243.52 17.77"/>
  <path class="st0" d="M243.44,145.68c-17.14,0-28.36,13.09-28.36,30.07s11.22,30.07,28.36,30.07,28.2-13.24,28.2-30.07-11.06-30.07-28.2-30.07Z"/>
  <path class="st0" d="M299.46,95.21h-30.38l-5.14-14.96h-40.98l-5.14,14.96h-30.38L223.26,0h-57.19v249.19h155.14V0h-57.58l35.83,95.21ZM243.44,229.5c-31.78,0-55.62-22.12-55.62-53.75s23.84-53.75,55.62-53.75,55.47,22.12,55.47,53.75-23.68,53.75-55.47,53.75Z"/>
  <path class="st0" d="M332.15,249.19h66.12v-56.54h-29.14v-23.37h84.91v23.37h-28.98v56.54h62.22V0h-155.14v249.19ZM414.23,35.14c25.08,0,38.64,14.18,45.34,27.73l-23.06,11.06c-3.43-8.26-12.31-15.11-22.28-15.11-16.98,0-28.98,12.93-28.98,30.07s12,30.07,28.98,30.07c9.97,0,18.85-6.86,22.28-15.11l23.06,10.91c-6.7,13.24-20.25,27.89-45.34,27.89-31.94,0-56.25-21.81-56.25-53.75s24.31-53.75,56.25-53.75Z"/>
  <path class="st0" d="M621.08,0l-33.12,39.9,42.53,55.31h-32.87l-27.27-39.11-7.01,8.73v30.38h-26.8V0h-35.27v249.19s155.14,0,155.14,0V0h-35.34ZM627.11,206.41c-1.67,11.96-10.43,21.03-22.04,22.46-9.43,1.16-16.94-2.52-23-9.58-.47-.54-.32-.94-.08-1.5,3.42-8.18,3.84-16.45.65-24.8-.25-.67-.37-1.19.13-1.88,2.44-3.37,7.11-6.58,11.98-4.86,1.63.57,1.08-.69.9-1.35-1.17-4.21-2.69-8.31-4.43-12.33-4-9.25-8.61-18.17-14.45-26.41-1.24-1.76-1.31-1.76-2.57-.04-7.9,10.78-11.89,22.98-13.12,36.18-.14,1.48-.23,2.96-.36,4.64,2.82-.94,5.49-1.22,8.24-.62,4.35.94,7.43,3.46,9.28,7.44,4.7,10.07,1.99,23.05-6.16,29.8-8.86,7.33-21.78,7.74-31.15.97-10.42-7.53-13.64-21.18-7.6-32.3,3.43-6.31,9.25-9.17,15.71-7.73,1.77.4,3.38,1.17,4.95,2.66.37-3.86.58-7.33,1.12-10.77,1.9-12.09,5.93-23.33,13.19-33.28,2.98-4.08,5.69-8.42,9.39-11.9,9-8.46,19.71-10.74,31.59-8.29,2.66.55,2.69.84,1.91,3.49-1.32,4.5-4.19,7.92-7.8,10.73-5.26,4.11-11.32,6.25-17.94,6.81-1.92.16-1.95.1-.89,1.81,4.49,7.22,8.5,14.69,11.97,22.45,2.32,5.19,4.28,10.51,5.8,15.98.43,1.53.87,1.94,2.51,1.08,5.05-2.64,12.35-1.32,16.69,2.91,5.17,5.04,6.55,11.24,5.57,18.22Z"/>
  <polygon class="st0" points="563.35 0 563.35 33.98 588.77 0 563.35 0"/>
</svg>