<?xml version="1.0" encoding="UTF-8"?>
<svg xmlns="http://www.w3.org/2000/svg" version="1.1" viewBox="0 0 95 108.25">
  <!-- Generator: Adobe Illustrator 29.8.6, SVG Export Plug-In . SVG Version: 2.1.1 Build 1)  -->
  <defs>
    <style>
      .st0 {
        fill: #fff;
      }

      .st1 {
        display: none;
      }
    </style>
  </defs>
  <g id="Layer_2" class="st1">
    <rect x="-.02" y="0" width="95" height="108.25"/>
  </g>
  <g id="Layer_3">
    <path class="st0" d="M35.4,61.63c1.87-.63,3.65-.81,5.49-.41,2.89.63,4.94,2.3,6.18,4.95,3.13,6.71,1.33,15.34-4.1,19.84-5.9,4.88-14.5,5.15-20.74.65-6.94-5.01-9.08-14.1-5.06-21.5,2.28-4.2,6.16-6.11,10.46-5.14,1.18.26,2.25.78,3.29,1.77.24-2.57.39-4.88.75-7.17,1.26-8.05,3.95-15.53,8.78-22.16,1.98-2.72,3.79-5.6,6.25-7.92,5.99-5.63,13.12-7.15,21.03-5.52,1.77.37,1.79.56,1.27,2.32-.88,3-2.79,5.27-5.19,7.15-3.5,2.73-7.54,4.16-11.95,4.53-1.28.11-1.3.07-.59,1.21,2.99,4.81,5.66,9.78,7.97,14.95,1.54,3.45,2.85,7,3.86,10.64.29,1.02.58,1.29,1.67.72,3.36-1.76,8.22-.88,11.11,1.93,3.44,3.35,4.36,7.48,3.71,12.13-1.11,7.96-6.94,14-14.67,14.95-6.28.77-11.28-1.68-15.31-6.38-.31-.36-.21-.62-.06-1,2.27-5.44,2.56-10.95.43-16.51-.17-.44-.25-.79.08-1.25,1.63-2.24,4.73-4.38,7.98-3.23,1.08.38.72-.46.6-.9-.78-2.81-1.79-5.53-2.95-8.21-2.67-6.16-5.73-12.1-9.62-17.58-.83-1.17-.87-1.17-1.71-.03-5.26,7.18-7.92,15.3-8.74,24.09-.09.98-.15,1.97-.24,3.09Z"/>
  </g>
</svg>