<?xml version="1.0" encoding="UTF-8"?>
<svg xmlns="http://www.w3.org/2000/svg" version="1.1" viewBox="0 0 95 108.25">
  <!-- Generator: Adobe Illustrator 29.8.6, SVG Export Plug-In . SVG Version: 2.1.1 Build 1)  -->
  <defs>
    <style>
      .st0 {
        fill: #fff;
      }

      .st1 {
        fill: #fce6de;
      }

      .st2 {
        display: none;
      }
    </style>
  </defs>
  <g id="Layer_2" class="st2">
    <rect x="-.01" y=".2" width="95" height="108.25"/>
  </g>
  <g id="Layer_3">
    <g>
      <g>
        <path class="st1" d="M65.29,46.78c-5.78,14.04-11.51,27.98-17.36,42.18-1.5-3.59-2.9-6.92-4.29-10.25-4.28-10.23-8.55-20.47-12.86-30.69-.44-1.04-.35-1.31.83-1.31,10.91.02,21.83,0,32.74,0,.26,0,.52.04.93.08Z"/>
        <path class="st1" d="M52.1,88.54c.58-1.4,1.07-2.62,1.57-3.83,5.04-12.24,10.1-24.48,15.11-36.74.39-.95.85-1.29,1.9-1.28,5.57.07,11.14.03,16.71.05.46,0,1.11-.26,1.33.38.19.55-.29.94-.62,1.31-3.98,4.47-7.97,8.93-11.95,13.39-7.85,8.79-15.69,17.58-23.54,26.37-.08.09-.21.15-.52.35Z"/>
        <path class="st1" d="M6.23,46.73c2.22,0,4.1,0,5.97,0,4.24,0,8.47.04,12.71,0,.97-.01,1.45.27,1.84,1.2,4.95,11.94,9.95,23.86,14.95,35.79.72,1.72,1.49,3.42,2.09,5.22-12.43-13.98-24.87-27.95-37.55-42.2Z"/>
        <path class="st1" d="M30.68,42.91c3.27-5.33,6.41-10.42,9.51-15.53.32-.52.7-.63,1.25-.63,4.51.02,9.02.02,13.53,0,.56,0,.94.15,1.24.66,2.83,4.9,5.68,9.79,8.51,14.69.69,1.19-.42.8-.82.81-6.77.05-13.53.07-20.3.08-3.77,0-7.55,0-11.32-.01-.45,0-.9-.04-1.59-.07Z"/>
        <path class="st1" d="M60.09,26.78c4.24,0,8.24,0,12.23,0,.46,0,.77.21,1.07.52,4.4,4.57,8.82,9.13,13.22,13.69.03.03.06.07.09.1.43.48,1.1,1.01.82,1.62-.26.56-1.08.24-1.65.24-5.06.01-10.12,0-15.18-.01-.59,0-1.15.06-1.54-.61-2.97-5.12-5.96-10.23-9.07-15.54Z"/>
        <path class="st1" d="M8.07,43.06c5.05-5.24,10.09-10.48,15.14-15.73.33-.34.68-.59,1.19-.59,3.86,0,7.73,0,11.81,0-1.48,2.44-2.86,4.7-4.24,6.96-1.7,2.79-3.41,5.58-5.11,8.37-.32.52-.6.95-1.36.95-5.8-.04-11.61-.04-17.41-.06-.12,0-.24-.07-.36-.11.12.07.23.14.35.21Z"/>
      </g>
      <g>
        <path class="st0" d="M65.29,46.78c-5.78,14.04-11.51,27.98-17.36,42.18-1.5-3.59-2.9-6.92-4.29-10.25-4.28-10.23-8.55-20.47-12.86-30.69-.44-1.04-.35-1.31.83-1.31,10.91.02,21.83,0,32.74,0,.26,0,.52.04.93.08Z"/>
        <path class="st0" d="M52.1,88.54c.58-1.4,1.07-2.62,1.57-3.83,5.04-12.24,10.1-24.48,15.11-36.74.39-.95.85-1.29,1.9-1.28,5.57.07,11.14.03,16.71.05.46,0,1.11-.26,1.33.38.19.55-.29.94-.62,1.31-3.98,4.47-7.97,8.93-11.95,13.39-7.85,8.79-15.69,17.58-23.54,26.37-.08.09-.21.15-.52.35Z"/>
        <path class="st0" d="M6.23,46.73c2.22,0,4.1,0,5.97,0,4.24,0,8.47.04,12.71,0,.97-.01,1.45.27,1.84,1.2,4.95,11.94,9.95,23.86,14.95,35.79.72,1.72,1.49,3.42,2.09,5.22-12.43-13.98-24.87-27.95-37.55-42.2Z"/>
        <path class="st0" d="M30.68,42.91c3.27-5.33,6.41-10.42,9.51-15.53.32-.52.7-.63,1.25-.63,4.51.02,9.02.02,13.53,0,.56,0,.94.15,1.24.66,2.83,4.9,5.68,9.79,8.51,14.69.69,1.19-.42.8-.82.81-6.77.05-13.53.07-20.3.08-3.77,0-7.55,0-11.32-.01-.45,0-.9-.04-1.59-.07Z"/>
        <path class="st0" d="M60.09,26.78c4.24,0,8.24,0,12.23,0,.46,0,.77.21,1.07.52,4.4,4.57,8.82,9.13,13.22,13.69.03.03.06.07.09.1.43.48,1.1,1.01.82,1.62-.26.56-1.08.24-1.65.24-5.06.01-10.12,0-15.18-.01-.59,0-1.15.06-1.54-.61-2.97-5.12-5.96-10.23-9.07-15.54Z"/>
        <path class="st0" d="M8.07,43.06c5.05-5.24,10.09-10.48,15.14-15.73.33-.34.68-.59,1.19-.59,3.86,0,7.73,0,11.81,0-1.48,2.44-2.86,4.7-4.24,6.96-1.7,2.79-3.41,5.58-5.11,8.37-.32.52-.6.95-1.36.95-5.8-.04-11.61-.04-17.41-.06-.12,0-.24-.07-.36-.11.12.07.23.14.35.21Z"/>
      </g>
    </g>
  </g>
</svg>