<?xml version="1.0" encoding="UTF-8"?>
<svg xmlns="http://www.w3.org/2000/svg" version="1.1" viewBox="0 0 95 108.25">
  <!-- Generator: Adobe Illustrator 29.8.6, SVG Export Plug-In . SVG Version: 2.1.1 Build 1)  -->
  <defs>
    <style>
      .st0 {
        fill: #fff;
      }

      .st1 {
        display: none;
      }
    </style>
  </defs>
  <g id="Layer_2" class="st1">
    <rect x="-.01" y=".2" width="95" height="108.25"/>
  </g>
  <g id="Layer_3">
    <path class="st0" d="M58.82,37.59c-.64-.12-.97.12-1.3.3-4.38,2.38-8.93,2.53-13.66,1.19-2.89-.82-5.75-1.79-8.78-2.08-3.67-.36-6.53,1.17-8.14,4.48-.63,1.31-1.09,2.69-1.43,4.09-.17.72-.5,1.04-1.28,1.04-2.58,0-5.17.08-7.75.1-1.5,0-1.69-.2-1.69-1.69,0-8.26.02-16.52-.02-24.79,0-1.09.36-1.44,1.43-1.42,2.7.06,5.4.07,8.1,0,1.16-.03,1.5.39,1.45,1.5-.08,1.89,0,1.91,1.66.95,7.3-4.22,15-4.46,22.94-2.32,2.57.69,5.07,1.62,7.66,2.21,4.99,1.12,9.82.24,14.45-1.7,1.42-.59,2.35-.38,3.39.63,1.44,1.39,2.79,2.85,4.02,4.43.43.55.36.87-.06,1.38-7.28,8.77-12.71,18.62-16.27,29.4-3.46,10.48-5.17,21.27-4.17,32.37.03.35.06.7.05,1.06-.02,1.76-.57,2.31-2.33,2.31-7.99,0-15.98,0-23.96,0-.55,0-1.1.02-1.64,0-1.24-.03-1.73-.46-1.75-1.69-.22-14.75,4.04-27.82,14.54-38.54,2.88-2.94,5.94-5.67,9.18-8.21,1.86-1.46,3.47-3.24,5.33-5Z"/>
  </g>
</svg>